<?xml version="1.0" encoding="UTF-8"?>
<svg version="1.1" xmlns="http://www.w3.org/2000/svg" width="512" height="512">
<path d="M0 0 C0.85207031 0.48339844 1.70414063 0.96679688 2.58203125 1.46484375 C22.60759293 13.91316588 35.36357223 34.4224447 41 57 C42 62 42 62 42 76 C78.96 76 115.92 76 154 76 C154.33 72.37 154.66 68.74 155 65 C160.34696824 41.71196477 174.18078295 21.67436689 194.3125 8.75 C209.25670605 -0.00429822 223.8668009 -4.59867707 241.25 -4.4375 C243.01597534 -4.42396484 243.01597534 -4.42396484 244.81762695 -4.41015625 C269.48610428 -3.92311152 290.71150881 6.3519082 308 24 C319.3830387 36.99295266 327.98207096 53.74649484 329.5625 71.0625 C329.87802825 73.75467806 329.87802825 73.75467806 331 76 C333.62386012 77.54425101 336.11757098 78.26504554 339.05078125 79.06640625 C348.04703421 81.91422672 354.72027914 90.09524714 359.16808319 98.10299683 C363.36957798 107.90482648 362.56070118 118.36583992 362.51757812 128.8203125 C362.52300442 131.03066467 362.53012991 133.24101322 362.53881836 135.45135498 C362.55699413 141.4306812 362.55000781 147.40973015 362.53730202 153.38906097 C362.5271446 159.65928369 362.5365753 165.92948334 362.54284668 172.19970703 C362.55058007 183.40108902 362.53818299 194.60236966 362.51780933 205.80372739 C362.49994048 215.94147941 362.50304527 226.07904816 362.52148438 236.21679688 C362.54293361 248.01487175 362.55083558 259.81285746 362.53903532 271.61095238 C362.53281303 277.84698254 362.53193003 284.08288672 362.54518127 290.31890869 C362.55677242 296.18283851 362.54865413 302.0464237 362.52560425 307.91031647 C362.52033463 310.05685098 362.52180084 312.20341472 362.53065491 314.34993744 C362.58715775 329.44473542 361.94937752 341.53025602 351 353 C341.76523306 361.81579831 331.76391084 364.64602212 319.20703125 364.390625 C318.13498947 364.38496521 317.06294769 364.37930542 315.9584198 364.37347412 C312.57596812 364.35130514 309.19462475 364.30114562 305.8125 364.25 C303.50196856 364.22990983 301.1914203 364.21166351 298.88085938 364.1953125 C293.25353603 364.15150466 287.62684723 364.08479134 282 364 C282.25587405 365.77305664 282.53027739 367.54344608 282.8125 369.3125 C282.96332031 370.29863281 283.11414063 371.28476562 283.26953125 372.30078125 C284.04771242 375.17630632 284.64501344 376.23803669 287 378 C290.03371256 379.01123752 292.0887563 379.13017603 295.26245117 379.1418457 C296.3375444 379.14888016 297.41263763 379.15591461 298.52030945 379.16316223 C300.2640258 379.16940865 300.2640258 379.16940865 302.04296875 379.17578125 C304.50326372 379.19898465 306.9635502 379.22310219 309.42382812 379.24804688 C313.3035241 379.28312284 317.18290909 379.31248409 321.06274414 379.32592773 C324.80653633 379.34144036 328.54941822 379.38167935 332.29296875 379.42578125 C334.02150337 379.42291862 334.02150337 379.42291862 335.78495789 379.41999817 C343.66654646 379.53914773 349.14828153 380.6247136 355.2421875 385.96484375 C355.78101563 386.61582031 356.31984375 387.26679688 356.875 387.9375 C357.42929687 388.58589844 357.98359375 389.23429687 358.5546875 389.90234375 C363.03412097 396.40357557 362.67463728 403.37140917 362 411 C360.31914417 417.65959333 355.53621678 422.18547447 350 426 C346.37164982 427.7038796 343.53551057 428.24835233 339.53935242 428.24050903 C337.91352486 428.24463303 337.91352486 428.24463303 336.25485229 428.24884033 C335.07593414 428.24164978 333.89701599 428.23445923 332.68237305 428.22705078 C330.8085923 428.22748886 330.8085923 428.22748886 328.8969574 428.22793579 C325.47991183 428.22678268 322.06310908 428.21676465 318.64610648 428.20278788 C315.07200574 428.19027012 311.49790163 428.18910919 307.92378235 428.18673706 C301.15946801 428.18052536 294.39521846 428.16411875 287.63093263 428.14403808 C279.92843306 428.12166942 272.22593036 428.11068322 264.52340639 428.10064721 C248.68223343 428.07975224 232.84112507 428.04458231 217 428 C216.70053467 428.78101074 216.40106934 429.56202148 216.0925293 430.36669922 C214.96405974 433.08662606 213.72172605 434.89684146 211.8125 437.125 C211.26207031 437.78757812 210.71164062 438.45015625 210.14453125 439.1328125 C204.57176617 443.9848739 198.91044613 444.41661714 191.84765625 444.3359375 C190.08398068 444.34844767 188.32030878 444.36148469 186.55664062 444.375 C183.80723991 444.37892666 181.05820394 444.37497715 178.30883789 444.36035156 C175.63373693 444.35173533 172.96012606 444.3735322 170.28515625 444.3984375 C169.47345474 444.38509369 168.66175323 444.37174988 167.82545471 444.35800171 C162.48037272 444.42646229 159.34264179 445.61606346 154.97132874 448.65979004 C151.73118879 450.86260267 148.19542404 452.38728882 144.63671875 454.00390625 C143.85485703 454.36422943 143.0729953 454.72455261 142.2674408 455.09579468 C139.74334888 456.25702758 137.21564551 457.41012223 134.6875 458.5625 C132.93722701 459.36442417 131.1870651 460.16659083 129.43701172 460.96899414 C124.29594668 463.32283464 119.14904735 465.66368083 114 468 C113.26706726 468.33286011 112.53413452 468.66572021 111.7789917 469.00866699 C107.39944211 470.99648434 103.01449309 472.97173384 98.625 474.9375 C97.56498779 475.41453369 96.50497559 475.89156738 95.4128418 476.38305664 C84.9076714 481.04850519 75.68061184 484.16712803 64.06533813 484.12025452 C63.28433664 484.12110894 62.50333514 484.12196337 61.69866693 484.12284368 C59.09156814 484.12448584 56.48453423 484.11899787 53.87744141 484.11352539 C52.00465903 484.11324322 50.13187655 484.11340184 48.25909424 484.1139679 C43.18108939 484.1142547 38.10310817 484.10837675 33.02510881 484.10139394 C27.7159897 484.09514105 22.40687003 484.09455507 17.0977478 484.09336853 C7.04689088 484.09026093 -3.00395517 484.08205522 -13.05480731 484.07201904 C-24.49849992 484.06084019 -35.94219305 484.05534298 -47.38588977 484.05032361 C-70.92393254 484.03987215 -94.46196566 484.02228374 -118 484 C-118.09327017 472.81989948 -118.16405137 461.63989369 -118.20724869 450.45948124 C-118.22799625 445.26622191 -118.2560752 440.07323155 -118.30175781 434.88012695 C-118.34567858 429.85503488 -118.36923318 424.83019916 -118.37950897 419.80492973 C-118.38681835 417.90146291 -118.40108779 415.99800782 -118.42292023 414.09465218 C-118.73065499 386.1169114 -110.6220262 363.51719163 -91 343 C-90.43796875 342.37480469 -89.8759375 341.74960937 -89.296875 341.10546875 C-84.3089178 335.74220409 -78.30732863 331.68485815 -72 328 C-71.34 328 -70.68 328 -70 328 C-70 320.74 -70 313.48 -70 306 C-71.98 305.34 -73.96 304.68 -76 304 C-83.91572938 299.77281315 -90.62306995 294.2673608 -97 288 C-97.62648437 287.38640625 -98.25296875 286.7728125 -98.8984375 286.140625 C-110.41316131 273.9485645 -118.00880192 256.0743246 -118.19287109 239.33642578 C-118.20104858 238.68679367 -118.20922607 238.03716156 -118.21765137 237.36784363 C-118.24236769 235.22700883 -118.25899531 233.08624025 -118.2734375 230.9453125 C-118.27876118 230.20737331 -118.28408485 229.46943413 -118.28956985 228.70913315 C-118.3162554 224.79503167 -118.33563575 220.8809614 -118.35009766 216.96679688 C-118.36336752 213.75654161 -118.39109582 210.54693249 -118.43212891 207.33691406 C-118.4819948 203.43419257 -118.50628433 199.53205081 -118.51332474 195.62902451 C-118.51995425 194.15649954 -118.5349533 192.68398321 -118.55921555 191.21164322 C-118.84821378 172.59622479 -112.78932487 160.07047849 -101 146 C-101.75023437 145.36835938 -102.50046875 144.73671875 -103.2734375 144.0859375 C-119.65684833 129.92377793 -131.53646671 110.83200192 -134 89 C-135.57350197 66.9193258 -132.93351318 49.27178203 -122 30 C-121.51660156 29.14792969 -121.03320312 28.29585937 -120.53515625 27.41796875 C-108.08683412 7.39240707 -87.5775553 -5.36357223 -65 -11 C-42.31331267 -16.22276504 -19.78055435 -11.22215638 0 0 Z M-97.25 25.6875 C-106.82090829 35.77196922 -112.33274421 46.67345441 -116 60 C-116.17813232 60.62463135 -116.35626465 61.2492627 -116.53979492 61.89282227 C-120.51380431 80.08893635 -115.90497845 99.7082413 -106.20214844 115.23193359 C-102.70838797 120.37040096 -98.45858176 124.70156845 -94 129 C-92.87078125 130.18916016 -92.87078125 130.18916016 -91.71875 131.40234375 C-89.49686969 133.49944455 -87.80489082 134.79336727 -85 136 C-82.28098195 135.67118642 -82.28098195 135.67118642 -79.47265625 134.68725586 C-73.16121402 132.91697767 -67.403221 132.54794079 -60.875 132.56640625 C-59.76624512 132.5611644 -58.65749023 132.55592255 -57.51513672 132.55052185 C-55.18913606 132.54414647 -52.86310296 132.54537984 -50.53710938 132.55395508 C-47.00852362 132.56247941 -43.48155218 132.53361472 -39.953125 132.50195312 C-37.67708381 132.50034094 -35.4010398 132.50091897 -33.125 132.50390625 C-32.08714355 132.49267227 -31.04928711 132.48143829 -29.97998047 132.46986389 C-23.23120554 132.53308276 -17.9004489 133.77661139 -11.65039062 136.34996033 C-9.00138084 137.24868032 -9.00138084 137.24868032 -6.4765625 136.16334534 C-4.03121965 134.66424833 -2.0847542 132.9709736 0 131 C1.25296875 129.88431641 1.25296875 129.88431641 2.53125 128.74609375 C16.61963128 115.52762758 24.79887033 98.026665 25.45507812 78.76342773 C25.62123584 67.61731559 24.29941133 58.27345524 20 48 C19.61585938 47.06027344 19.23171875 46.12054688 18.8359375 45.15234375 C15.88696331 38.66259443 11.68298645 33.33315718 7 28 C6.40574219 27.31035156 5.81148438 26.62070312 5.19921875 25.91015625 C-7.87550814 11.77153295 -25.82139791 4.98192135 -44.77148438 4.04736328 C-65.11078955 3.6150862 -82.5861722 11.94862133 -97.25 25.6875 Z M190.75 33.6875 C181.17909171 43.77196922 175.66725579 54.67345441 172 68 C171.82259277 68.62084473 171.64518555 69.24168945 171.46240234 69.88134766 C168.43037675 83.77359586 170.52922243 99.0635757 176 112 C176.38414062 112.9384375 176.76828125 113.876875 177.1640625 114.84375 C180.10975481 121.33629633 184.31642631 126.66617405 189 132 C189.59425781 132.68964844 190.18851562 133.37929687 190.80078125 134.08984375 C203.95947928 148.31927096 221.92987184 154.82486778 241 156 C261.40081405 156.41435345 279.55223395 146.95567249 294.125 133.25 C298.57453935 128.67636992 301.82002828 123.50598685 305 118 C305.39058594 117.34386719 305.78117188 116.68773437 306.18359375 116.01171875 C307.26596587 114.04491804 308.15164011 112.07902789 309 110 C309.37253906 109.08863281 309.74507812 108.17726563 310.12890625 107.23828125 C315.86095034 90.6812619 314.77498985 72.02041799 308 56 C307.61585938 55.0615625 307.23171875 54.123125 306.8359375 53.15625 C303.89024519 46.66370367 299.68357369 41.33382595 295 36 C294.40574219 35.31035156 293.81148438 34.62070312 293.19921875 33.91015625 C280.12449186 19.77153295 262.17860209 12.98192135 243.22851562 12.04736328 C222.88921045 11.6150862 205.4138278 19.94862133 190.75 33.6875 Z M41 92 C37.535 102.395 37.535 102.395 34 113 C30.41677316 120.46505591 26.29991946 126.67278337 21 133 C20.45601562 133.67804688 19.91203125 134.35609375 19.3515625 135.0546875 C14.84147065 140.49644152 9.62372953 144.74542796 4 149 C4.28617188 149.71542969 4.57234375 150.43085938 4.8671875 151.16796875 C6.578125 155.4453125 8.2890625 159.72265625 10 164 C10.65484375 164.0093457 11.3096875 164.01869141 11.984375 164.02832031 C14.99030905 164.0824526 17.99475775 164.16601389 21 164.25 C22.02996094 164.26417969 23.05992187 164.27835937 24.12109375 164.29296875 C31.66052946 164.53307817 37.2379599 165.75360632 43.0234375 170.74609375 C43.46945313 171.30425781 43.91546875 171.86242187 44.375 172.4375 C44.83648437 172.99308594 45.29796875 173.54867187 45.7734375 174.12109375 C50.00446106 180.60237506 49.67032648 187.50761669 49 195 C47.36788567 201.20594371 43.30604094 205.53618117 38 209 C34.4672633 210.62376108 31.57621268 211.27802763 27.69921875 211.4140625 C26.72275391 211.45273438 25.74628906 211.49140625 24.74023438 211.53125 C23.73283203 211.5621875 22.72542969 211.593125 21.6875 211.625 C20.66076172 211.66367188 19.63402344 211.70234375 18.57617188 211.7421875 C16.05095735 211.83614897 13.52574408 211.9218154 11 212 C11.06264038 212.59229904 11.12528076 213.18459808 11.18981934 213.79484558 C11.85168676 220.07391877 12.49804954 226.35446262 13.13623047 232.63598633 C13.37493279 234.96645792 13.61732286 237.29655535 13.86376953 239.6262207 C14.22147136 243.01416798 14.56497447 246.40333166 14.90625 249.79296875 C15.0156189 250.8001445 15.12498779 251.80732025 15.2376709 252.84501648 C16.26876921 263.34588141 16 273.26548426 16 284 C124.9 284 233.8 284 346 284 C346.04125 256.465625 346.0825 228.93125 346.125 200.5625 C346.14320801 191.87365479 346.16141602 183.18480957 346.18017578 174.23266602 C346.18686532 166.4330376 346.18686532 166.4330376 346.19088745 158.63340759 C346.1927481 155.163777 346.20023261 151.69420782 346.21115112 148.22459412 C346.22491103 143.793074 346.22897456 139.36164268 346.22614455 134.93010318 C346.22673597 133.30736763 346.23067708 131.68462884 346.23843026 130.0619117 C346.60830701 114.56721966 346.60830701 114.56721966 340 101 C336.85853233 97.94459994 334.19528752 95.39842917 330 94 C329.731875 95.258125 329.46375 96.51625 329.1875 97.8125 C325.65398875 113.55718312 320.12006578 127.2739087 310 140 C309.03707031 141.22589844 309.03707031 141.22589844 308.0546875 142.4765625 C294.99699137 158.03979442 275.19857471 168.67512153 255 171 C228.97966281 172.92446902 206.69001918 168.45315519 186 152 C185.18273437 151.35804688 184.36546875 150.71609375 183.5234375 150.0546875 C165.74902428 135.14178972 158.05407111 114.29739113 154 92 C116.71 92 79.42 92 41 92 Z M-90.95703125 160.7578125 C-100.54361355 171.27922405 -101.10289605 181.64633681 -102 196 C-85.17 196 -68.34 196 -51 196 C-45.555 185.11 -45.555 185.11 -40 174 C-31.00388962 166.12840342 -28.21478233 164.76971257 -17.1875 164.375 C-15.86202148 164.31699219 -15.86202148 164.31699219 -14.50976562 164.2578125 C-12.34017028 164.16399216 -10.17011453 164.08092674 -8 164 C-11.0073812 157.38749724 -15.1704608 153.00594911 -21.625 149.625 C-28.85421358 147.72257537 -36.04983095 147.81385479 -43.46533203 147.81469727 C-45.59818995 147.81252728 -47.73051569 147.79438472 -49.86328125 147.77539062 C-65.7957055 147.70815983 -78.95198019 149.49643717 -90.95703125 160.7578125 Z M-26.51171875 183.734375 C-26.89972656 184.39953125 -27.28773437 185.0646875 -27.6875 185.75 C-28.08324219 186.40484375 -28.47898437 187.0596875 -28.88671875 187.734375 C-30.20447937 190.41613346 -31.07604374 193.16145895 -32 196 C-24.5414265 196.06965856 -17.0829237 196.1228914 -9.62409019 196.15543652 C-6.16024622 196.17106042 -2.69662561 196.19223795 0.76708984 196.22631836 C4.75355309 196.2652946 8.7399274 196.27973637 12.7265625 196.29296875 C14.58312973 196.31619453 14.58312973 196.31619453 16.47720337 196.33988953 C24.74134722 196.43466768 24.74134722 196.43466768 32 193 C33.42041821 190.15916359 33.31452272 188.14522722 33 185 C30.76793569 182.15219381 29.45007001 181.15002334 26 180 C24.50768676 179.90376388 23.01150916 179.86190234 21.51611328 179.85473633 C20.61152374 179.84835648 19.7069342 179.84197662 18.77493286 179.83540344 C17.79990814 179.83429062 16.82488342 179.8331778 15.8203125 179.83203125 C14.31294022 179.82703865 14.31294022 179.82703865 12.77511597 179.82194519 C10.64842181 179.8168809 8.52171971 179.81453671 6.39501953 179.81469727 C3.14472313 179.81251325 -0.10523253 179.79435896 -3.35546875 179.77539062 C-5.42187384 179.7724561 -7.48828054 179.7704717 -9.5546875 179.76953125 C-10.52566376 179.76234573 -11.49664001 179.75516022 -12.49703979 179.74775696 C-20.27510337 179.61495181 -20.27510337 179.61495181 -26.51171875 183.734375 Z M-102 212 C-102.29158673 234.16059148 -102.28732588 253.73096035 -88 272 C-87.278125 273.010625 -86.55625 274.02125 -85.8125 275.0625 C-81.76493371 279.8235356 -76.10939123 283.47357967 -71 287 C-70.67 287 -70.34 287 -70 287 C-69.79525999 283.31332998 -69.67190169 279.62813257 -69.5625 275.9375 C-69.50384766 274.89916016 -69.44519531 273.86082031 -69.38476562 272.79101562 C-69.17892518 267.00713216 -69.17892518 267.00713216 -71.47290039 261.86987305 C-73.2458872 260.14281004 -75.09713881 258.580549 -77 257 C-78.92578125 254.33984375 -78.92578125 254.33984375 -80.3125 251.9375 C-80.78300781 251.14214844 -81.25351563 250.34679687 -81.73828125 249.52734375 C-84.63492167 243.72509498 -85.38577016 238.69785806 -85.375 232.3125 C-85.37628906 231.52246582 -85.37757812 230.73243164 -85.37890625 229.91845703 C-85.25941104 223.26882025 -83.7794848 218.080123 -81 212 C-87.93 212 -94.86 212 -102 212 Z M-68 222.75 C-69.74987243 228.4370854 -70.2436324 234.55748133 -68.19140625 240.23828125 C-66.4319334 243.27626379 -64.50464836 245.59019148 -61.77076721 247.81028748 C-57.9721087 250.95956705 -55.39202706 253.4378065 -54.16867065 258.31277466 C-53.86593058 262.25612203 -53.82908309 266.14832241 -53.90234375 270.09765625 C-53.89668107 271.54212969 -53.88705745 272.98659249 -53.87367249 274.43101501 C-53.84920366 278.20467739 -53.8779943 281.9760616 -53.91845703 285.74951172 C-53.95024953 289.61107804 -53.93088296 293.4723657 -53.91601562 297.33398438 C-53.89436728 304.88996051 -53.92906515 312.44426502 -54 320 C-53.31410797 319.86246811 -52.62821594 319.72493622 -51.92153931 319.58323669 C-51.02140106 319.40293411 -50.12126282 319.22263153 -49.19384766 319.03686523 C-48.30170563 318.85808334 -47.4095636 318.67930145 -46.49038696 318.49510193 C-40.84952121 317.37366837 -35.35739781 316.75366299 -29.625 316.4375 C-28.88894531 316.39431641 -28.15289062 316.35113281 -27.39453125 316.30664062 C-25.59651932 316.20156201 -23.79828042 316.10037907 -22 316 C-22 313.36 -22 310.72 -22 308 C-27.28 308 -32.56 308 -38 308 C-38 302.72 -38 297.44 -38 292 C-35.77443359 292.05220703 -35.77443359 292.05220703 -33.50390625 292.10546875 C-31.52344891 292.13362691 -29.54297921 292.16092488 -27.5625 292.1875 C-26.58861328 292.21263672 -25.61472656 292.23777344 -24.61132812 292.26367188 C-17.47348724 292.33528901 -10.57569017 291.90848711 -4.84375 287.24609375 C-4.4003125 286.64925781 -3.956875 286.05242187 -3.5 285.4375 C-3.0359375 284.83808594 -2.571875 284.23867188 -2.09375 283.62109375 C4.42426966 273.96045746 -0.95119059 253.51055258 -2.08129883 242.67089844 C-2.44100775 239.21631216 -2.78872867 235.76066755 -3.13476562 232.3046875 C-3.35868518 230.10409637 -3.58326977 227.90357278 -3.80859375 225.703125 C-3.91280136 224.67197571 -4.01700897 223.64082642 -4.12437439 222.57843018 C-4.22440262 221.62603455 -4.32443085 220.67363892 -4.42749023 219.69238281 C-4.55739601 218.43787323 -4.55739601 218.43787323 -4.68992615 217.15802002 C-4.96005281 214.82302854 -4.96005281 214.82302854 -6 212 C-13.25862516 211.79651302 -20.51651061 211.65679334 -27.77734375 211.56054688 C-30.24507125 211.5204107 -32.71260964 211.46588731 -35.1796875 211.39648438 C-38.73485008 211.29900411 -42.28749106 211.2539729 -45.84375 211.21875 C-46.93989624 211.17745972 -48.03604248 211.13616943 -49.16540527 211.09362793 C-58.823112 211.08801929 -62.55386091 215.26155875 -68 222.75 Z M-3 305 C-3.99 305.66 -4.98 306.32 -6 307 C-6.36416047 309.43693311 -6.36416047 309.43693311 -6.1875 312.125 C-6.16042969 313.03507812 -6.13335937 313.94515625 -6.10546875 314.8828125 C-6.07066406 315.58148438 -6.03585938 316.28015625 -6 317 C-4.824375 317.37125 -3.64875 317.7425 -2.4375 318.125 C35.11964602 330.80127377 35.11964602 330.80127377 43.46508503 345.59756565 C47.46906472 349.39228794 51.57688392 348.68124365 56.89848328 348.61473083 C58.02261133 348.62041409 59.14673939 348.62609735 60.30493194 348.63195282 C64.08606579 348.64491063 67.86614074 348.62201635 71.6472168 348.59936523 C74.35239425 348.59845859 77.05754146 348.60505819 79.76271057 348.61131287 C86.35735828 348.62199499 92.95168713 348.6060192 99.54628625 348.5811746 C107.22828287 348.55325644 114.91021473 348.55190164 122.59225366 348.55173159 C136.30400234 348.55054359 150.01560461 348.52555651 163.72729492 348.48706055 C177.02516435 348.44975063 190.32292731 348.42846768 203.62084961 348.42553711 C204.43912087 348.4253543 205.25739212 348.42517149 206.10045948 348.42498314 C207.32576277 348.42471468 207.32576277 348.42471468 208.57581967 348.4244408 C210.22063712 348.42407538 211.86545458 348.423703 213.51027203 348.42332363 C214.32148661 348.42313812 215.13270119 348.4229526 215.96849803 348.42276147 C228.6470141 348.41918644 241.32551377 348.40072914 254.00401312 348.38083039 C258.59509331 348.37381783 263.18616962 348.36902931 267.77725401 348.36586904 C275.06467425 348.36080921 282.35202051 348.34932252 289.63940277 348.32456874 C292.96809371 348.31338138 296.29665055 348.30629183 299.62537003 348.30570221 C303.23920978 348.30444166 306.85280187 348.2908733 310.46659851 348.27415466 C311.51155619 348.27656975 312.55651387 348.27898483 313.63313693 348.2814731 C323.20495137 348.21224123 331.57449787 347.46453452 338.62890625 340.359375 C344.66524362 333.66849503 346.14577716 327.11455126 346.09765625 318.1640625 C346.09282227 316.56884766 346.09282227 316.56884766 346.08789062 314.94140625 C346.07951172 313.84699219 346.07113281 312.75257813 346.0625 311.625 C346.05573242 309.94857422 346.05573242 309.94857422 346.04882812 308.23828125 C346.03709244 305.49213196 346.02067363 302.74609414 346 300 C302.69482461 299.88556942 259.38966522 299.79745863 216.08436847 299.74467335 C210.97242378 299.73841978 205.8604794 299.73194817 200.74853516 299.7253418 C199.22198343 299.72337447 199.22198343 299.72337447 197.66459227 299.7213674 C181.1835413 299.69960759 164.70257749 299.66018287 148.22157824 299.61423602 C131.31203949 299.56748743 114.4025464 299.53970798 97.49294567 299.52955753 C87.05778519 299.52269506 76.62287106 299.50101639 66.1877864 299.46041767 C59.03320093 299.43399905 51.87874292 299.42599702 44.72411221 299.43249311 C40.59545887 299.43569738 36.46723616 299.43076674 32.33865929 299.40397263 C28.55698115 299.37960919 24.77602249 299.37843182 20.99431098 299.39550553 C18.98205771 299.39861262 16.96981269 299.37707511 14.95768261 299.35459346 C7.51166269 299.41617263 2.80656416 300.26244492 -3 305 Z M-77 353 C-77.91845703 353.77730469 -77.91845703 353.77730469 -78.85546875 354.5703125 C-94.62544687 368.93290127 -100.29652284 389.55827411 -102 410 C-102 429.14 -102 448.28 -102 468 C-62.73 468 -23.46 468 17 468 C15.02 465.69 13.04 463.38 11 461 C1.60055819 449.09660853 -3.00393848 435.74238006 -7.15234375 421.37597656 C-7.88481315 418.84103854 -8.63264404 416.31100095 -9.3828125 413.78125 C-9.85765326 412.16432138 -10.33164421 410.5471429 -10.8046875 408.9296875 C-11.02647675 408.17662323 -11.24826599 407.42355896 -11.47677612 406.64767456 C-12.3335777 403.66779215 -13 401.11761893 -13 398 C-10.87607494 397.3299166 -8.75082476 396.66403203 -6.625 396 C-5.44164062 395.62875 -4.25828125 395.2575 -3.0390625 394.875 C0 394 0 394 2 394 C2.35715088 395.23975586 2.71430176 396.47951172 3.08227539 397.75683594 C4.42846695 402.41353333 5.79602101 407.06374006 7.16967773 411.71240234 C7.75808577 413.71430903 8.34090696 415.71786754 8.91772461 417.72314453 C14.1720155 435.96531464 19.85307225 451.86476613 37.296875 461.68359375 C50.09561443 467.91650587 63.26088711 469.92372633 76.96630859 465.34277344 C87.93027682 461.28592198 98.47811231 456.06999595 109 451 C106.83836487 444.06001352 104.1063786 437.56882431 101 431 C95.93622363 431.65084812 91.68345438 433.84163479 87.12109375 436 C86.27200943 436.39574219 85.42292511 436.79148437 84.54811096 437.19921875 C81.84214217 438.46101841 79.13958311 439.72990307 76.4375 441 C73.73154842 442.26942908 71.02487819 443.53722845 68.31617737 444.80078125 C66.63280615 445.58625387 64.9510456 446.37518983 63.27110291 447.16796875 C62.50673416 447.52503906 61.74236542 447.88210938 60.95483398 448.25 C60.28596664 448.56453125 59.6170993 448.8790625 58.92796326 449.203125 C57 450 57 450 53 451 C50.69 446.05 48.38 441.1 46 436 C47.98 435.34 49.96 434.68 52 434 C53.67163195 433.34588315 55.34015202 432.68346682 57 432 C56.39729843 427.18187577 55.77573313 422.36664804 55.13842773 417.55297852 C54.92520845 415.92372768 54.71668322 414.29385391 54.51342773 412.66333008 C51.91994065 391.92183709 47.11441417 374.04147441 33 358 C32.32195312 357.2265625 31.64390625 356.453125 30.9453125 355.65625 C17.48652671 341.26077216 -2.00631836 333.12015158 -21.515625 332 C-42.50990252 332 -61.26162361 339.07866529 -77 353 Z M58 364 C60.31 369.61 62.62 375.22 65 381 C67.74750264 391.14736395 69.16167962 401.36703827 70.54882812 411.7734375 C70.78956055 413.49820313 70.78956055 413.49820313 71.03515625 415.2578125 C71.1731665 416.2905127 71.31117676 417.32321289 71.45336914 418.38720703 C71.87627464 421.21801659 71.87627464 421.21801659 74 424 C78.39787148 422.02738902 82.79440114 420.05182899 87.18969727 418.07348633 C88.68607376 417.40046634 90.18281794 416.72826325 91.67993164 416.05688477 C93.82795134 415.09343998 95.97464492 414.12709472 98.12109375 413.16015625 C98.79401962 412.85908463 99.4669455 412.558013 100.16026306 412.24781799 C103.30249055 410.97123868 103.30249055 410.97123868 106 409 C106.0928726 407.58774954 106.11746772 406.17091066 106.11352539 404.75561523 C106.11334412 403.38536194 106.11334412 403.38536194 106.11315918 401.98742676 C106.10804321 401.02091187 106.10292725 400.05439697 106.09765625 399.05859375 C106.09614563 397.73317566 106.09614563 397.73317566 106.09460449 396.38098145 C106.08935531 393.06647451 106.07539417 389.75198601 106.0625 386.4375 C106.041875 379.033125 106.02125 371.62875 106 364 C90.16 364 74.32 364 58 364 Z M122 364 C122 375.22 122 386.44 122 398 C124.31 396.02 126.62 394.04 129 392 C131.22766283 390.53625377 133.49931403 389.13696419 135.8125 387.8125 C136.93269531 387.15894531 138.05289062 386.50539063 139.20703125 385.83203125 C149.19703581 380.74797491 159.14832782 380.47648941 170.125 380.3125 C171.66929858 380.27925964 173.21357067 380.24476399 174.7578125 380.20898438 C178.50522509 380.12253655 182.25178105 380.06183069 186 380 C186 374.72 186 369.44 186 364 C164.88 364 143.76 364 122 364 Z M202 364 C202 371.92 202 379.84 202 388 C203.98 389.65 205.96 391.3 208 393 C210.01171875 395.61328125 210.01171875 395.61328125 211.6875 398.3125 C212.24824219 399.19550781 212.80898438 400.07851563 213.38671875 400.98828125 C214.68014127 403.40287873 215.66284403 405.63287101 216.60083008 408.18823242 C216.86471024 408.90355637 217.12859039 409.61888031 217.40046692 410.35588074 C217.59831284 410.89844009 217.79615875 411.44099945 218 412 C233.54239641 412.07012468 249.08478095 412.12300512 264.62729836 412.15543652 C271.84419676 412.17089618 279.06099678 412.19196838 286.27783203 412.22631836 C292.56906017 412.25624841 298.86021705 412.27558155 305.15151441 412.28226548 C308.48181412 412.28617169 311.81186281 412.29691306 315.14210892 412.31719017 C318.86260349 412.33894395 322.58267479 412.34196769 326.30322266 412.34057617 C327.40373962 412.351362 328.50425659 412.36214783 329.63812256 412.3732605 C335.14381086 412.35095538 339.29985061 412.23304842 344 409 C345.42041821 406.15916359 345.31452272 404.14522722 345 401 C342.76793569 398.15219381 341.45007001 397.15002334 338 396 C336.24784379 395.90393868 334.49232447 395.8646066 332.73754883 395.8581543 C331.6624556 395.85111984 330.58736237 395.84408539 329.47969055 395.83683777 C327.7359742 395.83059135 327.7359742 395.83059135 325.95703125 395.82421875 C323.49673628 395.80101535 321.0364498 395.77689781 318.57617188 395.75195312 C314.6964759 395.71687716 310.81709091 395.68751591 306.93725586 395.67407227 C303.19346367 395.65855964 299.45058178 395.61832065 295.70703125 395.57421875 C293.97849663 395.57708138 293.97849663 395.57708138 292.21504211 395.58000183 C284.49196471 395.46324856 278.99298995 394.44568824 272.9765625 389.25390625 C272.30753906 388.41666016 272.30753906 388.41666016 271.625 387.5625 C270.93277344 386.72912109 270.93277344 386.72912109 270.2265625 385.87890625 C265.5172441 378.66495035 266.62387584 373.35813766 266 364 C244.88 364 223.76 364 202 364 Z M156 397 C155.67 397.66 155.34 398.32 155 399 C155.886875 399.53625 156.77375 400.0725 157.6875 400.625 C163.20412461 404.33310852 167.31168833 409.51829994 169 416 C169.51641818 419.99597365 169.78368554 423.9785349 170 428 C173.87485635 428.08751413 177.74945643 428.14056435 181.625 428.1875 C182.71941406 428.21263672 183.81382812 428.23777344 184.94140625 428.26367188 C192.90023757 428.36948569 192.90023757 428.36948569 200 425 C202.00793434 420.98413132 201.61068958 416.11601994 200.38671875 411.875 C197.55018995 405.47719054 192.53015963 400.84913123 186.375 397.625 C176.70112308 395.07924292 165.80698536 395.07706169 156 397 Z M126.4375 418 C124.92446289 418.71542969 124.92446289 418.71542969 123.38085938 419.4453125 C120.91279633 420.61501063 118.45340754 421.79994636 116 423 C118.5580927 429.97185099 121.04148149 436.69569275 125 443 C129.80568187 441.47331233 134.42955529 439.66439611 139.0625 437.6875 C139.75666016 437.40455078 140.45082031 437.12160156 141.16601562 436.83007812 C145.68613857 434.89410904 148.6821789 432.7443085 152 429 C152.33 428.67 152.66 428.34 153 428 C153.58169863 423.38455511 153.6241677 419.99866833 151.125 416 C147.77684915 412.8487992 145.25599163 412.60078305 140.66064453 412.65234375 C135.5166937 413.32448414 131.05369796 415.73925447 126.4375 418 Z " fill="#ca1f26" transform="translate(142,20)"/>
<path d="M0 0 C0.66 0 1.32 0 2 0 C4.74335485 8.16059856 7.48186532 16.32280176 10.21417999 24.48710346 C11.48301198 28.27793394 12.75351476 32.0681873 14.02783203 35.85717773 C15.25721823 39.51277526 16.48222036 43.16981471 17.70417786 46.82790184 C18.17149032 48.22428995 18.6403885 49.6201484 19.11088562 51.01546669 C19.76886641 52.96767906 20.42121854 54.92168699 21.07226562 56.8762207 C21.44532837 57.9887471 21.81839111 59.1012735 22.20275879 60.24751282 C23 63 23 63 23 66 C31.58 66 40.16 66 49 66 C49 71.28 49 76.56 49 82 C36.13 82 23.26 82 10 82 C8.68 78.101875 7.36 74.20375 6 70.1875 C5.58234375 68.96184326 5.1646875 67.73618652 4.734375 66.47338867 C4.40953125 65.5063501 4.0846875 64.53931152 3.75 63.54296875 C3.24726563 62.0583313 3.24726563 62.0583313 2.734375 60.54370117 C2 58 2 58 2 55 C1.34 55 0.68 55 0 55 C-0.24476074 56.22323975 -0.48952148 57.44647949 -0.74169922 58.70678711 C-2.10915236 64.84417344 -4.12190264 70.73988741 -6.1328125 76.69140625 C-6.52951141 77.87725815 -6.92621033 79.06311005 -7.33493042 80.28489685 C-8.38052349 83.40781087 -9.4300014 86.5293818 -10.48144531 89.65032959 C-11.55735922 92.84715308 -12.62805617 96.04572266 -13.69921875 99.24414062 C-15.79472122 105.49769826 -17.89536246 111.74951125 -20 118 C-20.99 118 -21.98 118 -23 118 C-25.99630355 112.05797359 -28.98641142 106.11286035 -31.97216797 100.16552734 C-32.98928636 98.14136748 -34.0078375 96.11792691 -35.02783203 94.09521484 C-36.49105262 91.19294738 -37.9491538 88.28815855 -39.40625 85.3828125 C-40.09527405 84.02024826 -40.09527405 84.02024826 -40.79821777 82.63015747 C-41.21865356 81.78943695 -41.63908936 80.94871643 -42.07226562 80.08251953 C-42.44532837 79.34083527 -42.81839111 78.599151 -43.20275879 77.83499146 C-44 76 -44 76 -44 74 C-50.27 74 -56.54 74 -63 74 C-63 68.72 -63 63.44 -63 58 C-53.1 58 -43.2 58 -33 58 C-30.36 63.28 -27.72 68.56 -25 74 C-16.55945904 49.36840675 -8.18436176 24.71799027 0 0 Z " fill="#ca1f26" transform="translate(103,30)"/>
<path d="M0 0 C26.4 0 52.8 0 80 0 C80 21.12 80 42.24 80 64 C53.6 64 27.2 64 0 64 C0 42.88 0 21.76 0 0 Z M16 16 C16 26.56 16 37.12 16 48 C31.84 48 47.68 48 64 48 C64 37.44 64 26.88 64 16 C48.16 16 32.32 16 16 16 Z " fill="#ca1f26" transform="translate(208,224)"/>
<path d="M0 0 C55.44 0 110.88 0 168 0 C168 5.28 168 10.56 168 16 C112.56 16 57.12 16 0 16 C0 10.72 0 5.44 0 0 Z " fill="#000000" transform="translate(304,240)"/>
<path d="M0 0 C55.44 0 110.88 0 168 0 C168 5.28 168 10.56 168 16 C112.56 16 57.12 16 0 16 C0 10.72 0 5.44 0 0 Z " fill="#000000" transform="translate(304,208)"/>
<path d="M0 0 C44.88 0 89.76 0 136 0 C136 5.28 136 10.56 136 16 C91.12 16 46.24 16 0 16 C0 10.72 0 5.44 0 0 Z " fill="#000000" transform="translate(336,272)"/>
<path d="M0 0 C26.4 0 52.8 0 80 0 C80 5.28 80 10.56 80 16 C53.6 16 27.2 16 0 16 C0 10.72 0 5.44 0 0 Z " fill="#000000" transform="translate(208,192)"/>
<path d="M0 0 C26.4 0 52.8 0 80 0 C80 5.28 80 10.56 80 16 C53.6 16 27.2 16 0 16 C0 10.72 0 5.44 0 0 Z " fill="#000000" transform="translate(208,160)"/>
<path d="M0 0 C26.4 0 52.8 0 80 0 C80 5.28 80 10.56 80 16 C53.6 16 27.2 16 0 16 C0 10.72 0 5.44 0 0 Z " fill="#000000" transform="translate(208,128)"/>
<path d="M0 0 C21.12 0 42.24 0 64 0 C64 5.28 64 10.56 64 16 C42.88 16 21.76 16 0 16 C0 10.72 0 5.44 0 0 Z " fill="#000000" transform="translate(368,128)"/>
<path d="M0 0 C21.12 0 42.24 0 64 0 C64 5.28 64 10.56 64 16 C42.88 16 21.76 16 0 16 C0 10.72 0 5.44 0 0 Z " fill="#000000" transform="translate(368,96)"/>
<path d="M0 0 C21.12 0 42.24 0 64 0 C64 5.28 64 10.56 64 16 C42.88 16 21.76 16 0 16 C0 10.72 0 5.44 0 0 Z " fill="#000000" transform="translate(368,64)"/>
<path d="M0 0 C5.28 0 10.56 0 16 0 C16 5.28 16 10.56 16 16 C10.72 16 5.44 16 0 16 C0 10.72 0 5.44 0 0 Z " fill="#000000" transform="translate(456,336)"/>
<path d="M0 0 C5.28 0 10.56 0 16 0 C16 5.28 16 10.56 16 16 C10.72 16 5.44 16 0 16 C0 10.72 0 5.44 0 0 Z " fill="#000000" transform="translate(424,336)"/>
<path d="M0 0 C5.28 0 10.56 0 16 0 C16 5.28 16 10.56 16 16 C10.72 16 5.44 16 0 16 C0 10.72 0 5.44 0 0 Z " fill="#000000" transform="translate(392,336)"/>
<path d="M0 0 C5.28 0 10.56 0 16 0 C16 5.28 16 10.56 16 16 C10.72 16 5.44 16 0 16 C0 10.72 0 5.44 0 0 Z " fill="#000000" transform="translate(304,272)"/>
<path d="M0 0 C5.28 0 10.56 0 16 0 C16 5.28 16 10.56 16 16 C10.72 16 5.44 16 0 16 C0 10.72 0 5.44 0 0 Z " fill="#000000" transform="translate(336,128)"/>
<path d="M0 0 C5.28 0 10.56 0 16 0 C16 5.28 16 10.56 16 16 C10.72 16 5.44 16 0 16 C0 10.72 0 5.44 0 0 Z " fill="#000000" transform="translate(336,96)"/>
<path d="M0 0 C5.28 0 10.56 0 16 0 C16 5.28 16 10.56 16 16 C10.72 16 5.44 16 0 16 C0 10.72 0 5.44 0 0 Z " fill="#000000" transform="translate(336,64)"/>
</svg>
