<?xml version="1.0" encoding="UTF-8"?>
<svg version="1.1" xmlns="http://www.w3.org/2000/svg" width="512" height="512">
<path d="M0 0 C0.74529968 -0.0065712 1.49059937 -0.0131424 2.25848389 -0.01991272 C4.7209891 -0.03959428 7.18343336 -0.05129899 9.64599609 -0.0612793 C10.9125812 -0.06739259 10.9125812 -0.06739259 12.20475388 -0.07362938 C16.67719018 -0.09447173 21.14959599 -0.1087794 25.62207031 -0.11816406 C30.22178544 -0.12920354 34.8210135 -0.16358001 39.42055702 -0.20333576 C42.97411951 -0.22959465 46.52756776 -0.23786425 50.08121872 -0.24144554 C51.77554984 -0.24629033 53.46987658 -0.25784361 55.16411209 -0.27648354 C69.11848153 -0.42042396 79.48972452 1.57335759 90.10693359 11.30200195 C97.85043115 19.28534235 100.66735931 29.33718913 100.54443359 40.17700195 C101.35574234 40.17034012 102.16705109 40.16367828 103.00294495 40.15681458 C110.6678576 40.09657601 118.33265463 40.05096304 125.99774265 40.02156544 C129.93797 40.00594348 133.87800092 39.98476922 137.81811523 39.95068359 C141.62418981 39.9179655 145.43007603 39.90012286 149.23628044 39.89237022 C150.68468119 39.88684895 152.13307223 39.87606735 153.58139229 39.85981178 C169.49258366 39.68841367 169.49258366 39.68841367 175.28662109 44.67700195 C180.36429243 51.40053917 179.76338144 57.67002698 179.78466797 65.74560547 C179.7943538 67.97116757 179.82537891 70.19579787 179.85693359 72.42114258 C179.86346631 73.84626733 179.86871573 75.27139866 179.87255859 76.6965332 C179.8819043 77.98664307 179.89125 79.27675293 179.90087891 80.60595703 C179.45281551 85.0948771 178.09088575 88.44085166 175.07958984 91.8215332 C169.80543598 96.00448282 166.43559898 96.30591361 159.79443359 96.23950195 C158.62396484 96.23047852 157.45349609 96.22145508 156.24755859 96.2121582 C154.90951172 96.19475586 154.90951172 96.19475586 153.54443359 96.17700195 C153.55985608 96.82462651 153.57527857 97.47225107 153.5911684 98.13950062 C153.71417599 107.81692048 152.96737264 117.38245646 152.21508789 127.02148438 C152.07181305 128.9002258 151.92890954 130.77899557 151.78634644 132.65779114 C151.40025101 137.72813111 151.00815316 142.79798882 150.61429191 147.86773086 C150.36808678 151.03975727 150.12310081 154.21187551 149.87851906 157.38402748 C149.02416614 168.46278877 148.16458134 179.54113112 147.30053711 190.61914062 C146.49661031 200.92834377 145.70476214 211.23842786 144.91836804 221.54898185 C144.24109201 230.42126489 143.55501239 239.29283937 142.86219341 248.16392213 C142.44923577 253.45375026 142.03988505 258.74379676 141.63956261 264.0345974 C141.26305215 269.00704786 140.87557751 273.97852512 140.47977829 278.94947624 C140.3367501 280.76919871 140.19759324 282.58923042 140.0626812 284.4095726 C139.02227149 298.40103413 137.70732541 309.90687887 126.71630859 319.7824707 C119.42326485 324.4652344 112.59387401 324.58714768 104.16943359 324.4699707 C103.13560547 324.46694946 102.10177734 324.46392822 101.03662109 324.46081543 C97.20578915 324.44521895 93.37510045 324.40333557 89.54443359 324.36450195 C80.96443359 324.30262695 72.38443359 324.24075195 63.54443359 324.17700195 C63.54443359 345.95700195 63.54443359 367.73700195 63.54443359 390.17700195 C70.14443359 390.17700195 76.74443359 390.17700195 83.54443359 390.17700195 C92.00506352 395.01164762 92.00506352 395.01164762 93.54443359 399.17700195 C94.46324546 406.03363551 93.6243998 409.50987131 89.54443359 415.17700195 C87.96036311 416.93490326 86.32744025 418.64965329 84.65576172 420.32446289 C84.18367783 420.80005142 83.71159393 421.27563995 83.22520447 421.76564026 C81.68031896 423.31925083 80.12832611 424.86552151 78.57568359 426.41137695 C77.49209877 427.49631063 76.40881084 428.58154092 75.32580566 429.66705322 C73.06288632 431.93291094 70.79641495 434.19513738 68.52734375 436.45483398 C65.62200607 439.34875059 62.72577673 442.25159093 59.83213043 445.15719223 C57.60010646 447.39644628 55.3633372 449.63091131 53.12510681 451.86396027 C52.05514296 452.93259222 50.98665655 454.00270561 49.91969299 455.07433319 C48.42895411 456.57015915 46.93194027 458.05941133 45.43310547 459.54711914 C44.583573 460.39506042 43.73404053 461.24300171 42.85876465 462.11663818 C39.22924974 465.34786174 36.50856405 466.47662609 31.66943359 466.55200195 C30.84701172 466.58036133 30.02458984 466.6087207 29.17724609 466.63793945 C23.49089674 465.64240648 19.355694 461.23965054 15.39697266 457.28833008 C14.92138412 456.81624619 14.44579559 456.34416229 13.95579529 455.85777283 C12.40218471 454.31288732 10.85591404 452.76089447 9.31005859 451.20825195 C8.22512491 450.12466713 7.13989462 449.0413792 6.05438232 447.95837402 C3.78852461 445.69545468 1.52629817 443.42898331 -0.73339844 441.15991211 C-3.62731504 438.25457443 -6.53015538 435.35834509 -9.43575668 432.46469879 C-11.67501074 430.23267482 -13.90947576 427.99590556 -16.14252472 425.75767517 C-17.21115667 424.68771132 -18.28127006 423.61922491 -19.35289764 422.55226135 C-20.8487236 421.06152247 -22.33797578 419.56450863 -23.82568359 418.06567383 C-24.67362488 417.21614136 -25.52156616 416.36660889 -26.39520264 415.49133301 C-30.38378183 411.01110829 -30.90629306 407.51565183 -30.76806641 401.6496582 C-30.29785266 397.92909197 -28.98332236 395.90431758 -26.45556641 393.17700195 C-20.45556641 390.17700195 -20.45556641 390.17700195 -0.45556641 390.17700195 C-0.45556641 368.39700195 -0.45556641 346.61700195 -0.45556641 324.17700195 C-17.53774217 324.29547437 -17.53774217 324.29547437 -34.61962891 324.44726562 C-36.77327019 324.45603375 -38.92691647 324.46367692 -41.08056641 324.4699707 C-42.18400391 324.4853186 -43.28744141 324.5006665 -44.42431641 324.51647949 C-54.50182164 324.51987793 -61.08329131 322.39136934 -68.47509766 315.31762695 C-73.5109583 309.87452709 -74.66348942 304.84391285 -75.45870972 297.54000854 C-75.54296766 296.79314911 -75.62722561 296.04628967 -75.71403682 295.27679813 C-76.6456784 286.80134725 -77.31654801 278.30711839 -77.96777344 269.80639648 C-78.10572131 268.03848651 -78.24395426 266.27059876 -78.38244629 264.50273132 C-78.75326822 259.75752631 -79.11984834 255.01200304 -79.48536158 250.26638651 C-79.79222593 246.28744956 -80.10122401 242.30867942 -80.41020477 238.32990634 C-81.13916559 228.94258516 -81.86466764 219.55500119 -82.58789062 210.16723633 C-83.33196408 200.50953569 -84.08161512 190.8522795 -84.83403504 181.19522583 C-85.48259209 172.8689032 -86.12784778 164.54232925 -86.7704457 156.21554458 C-87.15311721 151.2571802 -87.53697311 146.29891524 -87.92395401 141.34088516 C-88.28728611 136.68383133 -88.64646558 132.02647497 -89.00253296 127.36886024 C-89.13329279 125.66726693 -89.2654712 123.96578189 -89.39922714 122.26442146 C-90.08256302 113.56124442 -90.67096185 104.91543019 -90.45556641 96.17700195 C-91.74140625 96.22920898 -91.74140625 96.22920898 -93.05322266 96.2824707 C-105.0330159 96.56609602 -105.0330159 96.56609602 -110.45556641 93.17700195 C-114.23187894 89.55885958 -116.34702421 86.32103934 -116.61669922 80.99414062 C-116.65398335 77.53213598 -116.68667476 74.07058269 -116.69580078 70.60839844 C-116.70548661 68.38283633 -116.73651172 66.15820604 -116.76806641 63.93286133 C-116.77459913 62.50773658 -116.77984854 61.08260525 -116.78369141 59.6574707 C-116.79303711 58.36736084 -116.80238281 57.07725098 -116.81201172 55.74804688 C-116.36394832 51.2591268 -115.00201856 47.91315224 -111.99072266 44.5324707 C-106.80340096 40.41838798 -103.46223449 40.05103503 -96.94287109 40.06347656 C-95.97639145 40.06325752 -95.97639145 40.06325752 -94.99038696 40.06303406 C-92.86937038 40.06372845 -90.74844257 40.07149859 -88.62744141 40.0793457 C-87.15342253 40.08121157 -85.67940302 40.08263468 -84.2053833 40.08363342 C-80.33217649 40.08744535 -76.45900738 40.0972643 -72.58581543 40.1083374 C-68.63094594 40.11858003 -64.67607034 40.12313715 -60.72119141 40.12817383 C-52.96596592 40.13888778 -45.21077145 40.15594826 -37.45556641 40.17700195 C-37.4692627 39.08895264 -37.48295898 38.00090332 -37.49707031 36.87988281 C-37.37817928 26.27270457 -32.87263751 17.63902801 -25.57275391 10.27856445 C-17.8237952 3.07659107 -10.51710804 0.04044168 0 0 Z M-15.45556641 24.17700195 C-19.18074855 29.74669176 -20.45556641 33.36618305 -20.45556641 40.17700195 C13.86443359 40.17700195 48.18443359 40.17700195 83.54443359 40.17700195 C82.58787823 31.56800372 81.94013019 27.485222 75.97412109 21.63793945 C67.91017185 15.2242868 57.65737523 15.87932122 47.85693359 15.91137695 C46.55925049 15.9094635 45.26156738 15.90755005 43.92456055 15.90557861 C41.19135722 15.90264759 38.45828555 15.90685924 35.72509766 15.91625977 C32.24542252 15.92765319 28.76605606 15.92108279 25.28639221 15.90911484 C21.93488216 15.9000946 18.58345237 15.90643509 15.23193359 15.91137695 C13.99419189 15.90732849 12.7564502 15.90328003 11.48120117 15.89910889 C1.2933328 15.95393322 -8.09459227 16.36796852 -15.45556641 24.17700195 Z M-99.45556641 57.17700195 C-99.45556641 64.43700195 -99.45556641 71.69700195 -99.45556641 79.17700195 C-12.99556641 79.17700195 73.46443359 79.17700195 162.54443359 79.17700195 C162.54443359 71.91700195 162.54443359 64.65700195 162.54443359 57.17700195 C76.08443359 57.17700195 -10.37556641 57.17700195 -99.45556641 57.17700195 Z M-73.45556641 96.17700195 C-73.45556641 102.78135591 -73.42772337 109.1643136 -72.90629578 115.71052551 C-72.84715919 116.49564929 -72.7880226 117.28077307 -72.72709399 118.08968848 C-72.53081562 120.68137257 -72.328568 123.27255278 -72.1262207 125.86376953 C-71.98298043 127.73738148 -71.84007579 129.61101912 -71.69747925 131.48468018 C-71.31110613 136.54452621 -70.9191376 141.60392282 -70.52542472 146.66320252 C-70.27938567 149.82666957 -70.03436362 152.99021382 -69.78965187 156.1537838 C-69.0230715 166.06071252 -68.25314102 175.96737205 -67.47822446 185.87365228 C-66.5847725 197.29542326 -65.70236997 208.71797711 -64.82950085 220.14133912 C-64.15298536 228.98644177 -63.46683298 237.8307637 -62.77332622 246.67455024 C-62.35973752 251.95139767 -61.95021679 257.22848547 -61.55069542 262.50641823 C-61.17513647 267.46415714 -60.787628 272.42081801 -60.3909111 277.37690735 C-60.24747439 279.19463145 -60.10833093 281.01270024 -59.97381401 282.83110619 C-59.78942916 285.3146157 -59.58955331 287.79641292 -59.38578796 290.27839661 C-59.33616226 290.99658737 -59.28653656 291.71477812 -59.23540705 292.45473224 C-58.7668896 297.85003974 -57.49512328 302.25805726 -53.48217773 306.03369141 C-48.72151562 307.83204429 -44.07321888 307.54309841 -39.02978516 307.4699707 C-37.92705765 307.46572586 -36.82433014 307.46148102 -35.68818665 307.45710754 C-32.17289618 307.44034101 -28.65818304 307.40269147 -25.14306641 307.36450195 C-22.75700699 307.34945254 -20.37093857 307.33576459 -17.98486328 307.32348633 C-12.14156799 307.29044408 -6.29860845 307.24026432 -0.45556641 307.17700195 C-0.37012573 305.84113037 -0.37012573 305.84113037 -0.28295898 304.47827148 C-0.20198975 303.30893066 -0.12102051 302.13958984 -0.03759766 300.93481445 C0.03998779 299.7761084 0.11757324 298.61740234 0.19750977 297.42358398 C0.72849882 292.45448308 1.79865968 288.813665 5.54443359 285.30200195 C8.62999854 283.56637167 11.16884843 283.04877471 14.64526367 283.01586914 C15.46654251 283.0062616 16.28782135 282.99665405 17.13398743 282.98675537 C18.46057625 282.98038055 18.46057625 282.98038055 19.81396484 282.97387695 C20.72772385 282.96817688 21.64148285 282.96247681 22.58293152 282.956604 C24.5171086 282.94715778 26.45130174 282.94062152 28.38549805 282.93676758 C31.33524895 282.92707322 34.28429966 282.89605097 37.23388672 282.86450195 C39.11474196 282.85797048 40.99560218 282.85272057 42.87646484 282.84887695 C43.7547847 282.83653015 44.63310455 282.82418335 45.53804016 282.8114624 C50.63500797 282.82987561 54.12237535 283.35604118 58.54443359 286.17700195 C62.6285367 290.54276734 62.70184664 295.1400454 63.10693359 300.92700195 C63.19072266 302.0974707 63.27451172 303.26793945 63.36083984 304.47387695 C63.42142578 305.3659082 63.48201172 306.25793945 63.54443359 307.17700195 C70.55521241 307.27857573 77.56580084 307.34854056 84.57714844 307.39672852 C86.96133516 307.41682089 89.34547274 307.44409977 91.72949219 307.47875977 C95.16011697 307.52738054 98.59008915 307.54999507 102.02099609 307.56762695 C103.08371735 307.58827209 104.1464386 307.60891724 105.24136353 307.63018799 C111.1230532 307.63196395 115.06851248 307.43571593 119.54443359 303.17700195 C121.65546974 299.04186688 122.02425902 294.91396411 122.35440063 290.35395813 C122.41736277 289.57269961 122.4803249 288.79144109 122.54519498 287.98650807 C122.75388356 285.37256673 122.95114083 282.7578904 123.1484375 280.14306641 C123.29583822 278.26689931 123.44393191 276.39078655 123.59266663 274.51472473 C123.9944913 269.42002185 124.38631419 264.32459405 124.77615786 259.22896218 C125.1859434 253.89207301 125.60418783 248.55584632 126.02133179 243.2195282 C126.72100223 234.25272505 127.41449157 225.28546078 128.10400391 216.31787109 C128.90016737 205.96379244 129.70455971 195.61037992 130.51374304 185.25731117 C131.37602166 174.22393707 132.23237442 163.19010886 133.0869441 152.15613532 C133.33303517 148.98372501 133.5802114 145.8114008 133.82762527 142.6390934 C134.21708555 137.64157012 134.60255121 132.64375369 134.9849987 127.64568901 C135.12557327 125.81630467 135.26743697 123.98701883 135.41071892 122.15784454 C135.6068878 119.65047904 135.79824053 117.14278887 135.98843384 114.63496399 C136.04543382 113.92044093 136.10243381 113.20591787 136.16116107 112.4697426 C136.56870017 106.99271048 136.54443359 101.7150773 136.54443359 96.17700195 C67.24443359 96.17700195 -2.05556641 96.17700195 -73.45556641 96.17700195 Z M16.54443359 299.17700195 C16.52985107 302.14982178 16.51526855 305.1226416 16.50024414 308.18554688 C16.44992175 318.00444708 16.38333077 327.8231883 16.30871868 337.64193249 C16.26397891 343.59542171 16.22473058 349.54884193 16.19799805 355.50244141 C16.17200131 361.24730292 16.13162426 366.9918994 16.08124733 372.73659706 C16.06455411 374.92901629 16.05305516 377.12148139 16.04681969 379.31395531 C16.03720549 382.38341474 16.00917761 385.45219234 15.97680664 388.52148438 C15.97824173 389.42923111 15.97967682 390.33697784 15.9811554 391.27223206 C15.90992253 396.04380388 15.68736856 399.32927966 12.54443359 403.17700195 C7.84783771 406.29658837 3.63135114 406.69165646 -1.83056641 406.86450195 C-2.56662109 406.89866211 -3.30267578 406.93282227 -4.06103516 406.96801758 C-5.85870494 407.04972984 -7.65710687 407.11505976 -9.45556641 407.17700195 C-5.02139969 412.48769 -0.34039954 417.42536812 4.56787109 422.2980957 C5.31404694 423.0428566 6.06022278 423.78761749 6.82901001 424.5549469 C9.19012748 426.91051022 11.55471522 429.26255411 13.91943359 431.61450195 C15.53034215 433.22038958 17.14102155 434.82650712 18.75146484 436.43286133 C22.67980872 440.35023708 26.61100033 444.26473683 30.54443359 448.17700195 C33.80923112 446.74570567 35.97562502 444.99410209 38.48681641 442.47753906 C39.24730286 441.72012924 40.00778931 440.96271942 40.7913208 440.18235779 C41.60187927 439.3646138 42.41243774 438.54686981 43.24755859 437.7043457 C44.50424347 436.4469735 44.50424347 436.4469735 45.78631592 435.16419983 C47.55376403 433.39373281 49.31878324 431.62083817 51.08154297 429.84570312 C53.79259176 427.11635622 56.5115991 424.39513763 59.23193359 421.67504883 C60.94594889 419.95611993 62.65950659 418.2367346 64.37255859 416.5168457 C65.19121399 415.69707748 66.00986938 414.87730927 66.85333252 414.03269958 C67.60121033 413.27844193 68.34908813 412.52418427 69.11962891 411.74707031 C69.78263 411.08025742 70.4456311 410.41344452 71.12872314 409.72642517 C72.65685597 408.40376085 72.65685597 408.40376085 72.54443359 407.17700195 C71.45904297 407.13961914 70.37365234 407.10223633 69.25537109 407.0637207 C67.8100262 406.99802321 66.3647152 406.93157719 64.91943359 406.86450195 C64.20658203 406.84194336 63.49373047 406.81938477 62.75927734 406.79614258 C58.04922303 406.55847929 54.57158726 405.85192954 50.54443359 403.17700195 C46.81402877 398.61007264 47.10317225 394.14366152 47.11206055 388.52148438 C47.09677307 387.07198395 47.09677307 387.07198395 47.08117676 385.59320068 C47.05103631 382.40623179 47.04177905 379.21956343 47.03271484 376.0324707 C47.01586897 373.82000224 46.99771886 371.60754335 46.97831726 369.39509583 C46.93080139 363.57710767 46.90100213 357.75915834 46.87487793 351.94104004 C46.84508055 346.00203788 46.79854735 340.06316952 46.75341797 334.12426758 C46.66736657 322.4752336 46.60157626 310.82621365 46.54443359 299.17700195 C36.64443359 299.17700195 26.74443359 299.17700195 16.54443359 299.17700195 Z " fill="#ca1f26" transform="translate(224.45556640625,22.822998046875)"/>
<path d="M0 0 C0.82072998 -0.00191345 1.64145996 -0.0038269 2.48706055 -0.00579834 C4.21500965 -0.00715382 5.94296915 -0.00350206 7.67089844 0.00488281 C10.30427084 0.01559154 12.93696112 0.00496599 15.5703125 -0.0078125 C17.25520983 -0.00649079 18.94010673 -0.00392816 20.625 0 C21.79712036 -0.00607269 21.79712036 -0.00607269 22.99291992 -0.01226807 C29.89643355 0.04646847 35.21142105 1.30624269 40.3125 6.265625 C42.87965558 10.9255712 42.58137872 15.56591071 42.53955078 20.73754883 C42.53984283 21.68437531 42.54013489 22.63120178 42.54043579 23.60671997 C42.53904513 26.72879273 42.52349621 29.8506253 42.5078125 32.97265625 C42.50408144 35.14027272 42.5012349 37.30789088 42.49923706 39.47550964 C42.49160798 45.17520825 42.47196563 50.87480462 42.4498291 56.57446289 C42.4293551 62.39272682 42.42023201 68.21100729 42.41015625 74.02929688 C42.38871913 85.44145112 42.35459186 96.85352955 42.3125 108.265625 C43.53066406 108.23082031 44.74882812 108.19601562 46.00390625 108.16015625 C47.62759028 108.13199988 49.25128935 108.10470171 50.875 108.078125 C51.67486328 108.05298828 52.47472656 108.02785156 53.29882812 108.00195312 C59.82323281 107.92206246 64.61439692 108.92253549 69.6875 113.328125 C72.24769914 116.38067013 72.56928238 118.45864776 72.75 122.390625 C72.81058594 123.30070312 72.87117187 124.21078125 72.93359375 125.1484375 C71.20688145 133.81457846 62.13945199 140.76028353 56.1640625 146.75 C55.18275136 147.73775515 54.20158342 148.72565258 53.22055054 149.71368408 C51.17496886 151.77116251 49.12537646 153.82454646 47.07324219 155.87548828 C44.45852159 158.49000515 41.85786892 161.11804982 39.26049232 163.74978256 C37.24263889 165.78997595 35.21565559 167.82091038 33.18607712 169.8494339 C31.75989401 171.27908738 30.3427949 172.7177846 28.92593384 174.15667725 C23.57648298 179.46876383 18.5557667 184.37792004 10.84375 185.68359375 C0.14186804 184.46934176 -7.23697663 173.87867023 -14.4609375 166.66015625 C-15.4759733 165.64834144 -16.49108083 164.63659858 -17.5062561 163.62492371 C-19.61742785 161.5196949 -21.72656873 159.41245559 -23.83447266 157.30395508 C-26.53275161 154.60557381 -29.23788942 151.91418092 -31.94476891 149.22443104 C-34.0362636 147.14405065 -36.12320182 145.05914544 -38.20888138 142.97293663 C-39.20480637 141.97818903 -40.20234722 140.9850564 -41.20154953 139.99360085 C-42.59402631 138.61092874 -43.97954594 137.2212608 -45.36474609 135.83129883 C-46.54766739 134.65051506 -46.54766739 134.65051506 -47.75448608 133.44587708 C-51.44990804 129.27779979 -52.13320394 125.96119607 -52.0078125 120.515625 C-51.38246464 116.12293763 -48.89057803 113.39108509 -45.75 110.453125 C-40.87426803 107.64588538 -35.3275835 108.14370875 -29.875 108.203125 C-28.69260742 108.20989258 -28.69260742 108.20989258 -27.48632812 108.21679688 C-25.55335239 108.22851188 -23.62041607 108.24644502 -21.6875 108.265625 C-21.69194122 107.10353012 -21.69638245 105.94143524 -21.70095825 104.74412537 C-21.74153354 93.78278984 -21.77149846 82.82146959 -21.79112434 71.86007595 C-21.80155343 66.22496341 -21.81569678 60.58991159 -21.83837891 54.95483398 C-21.8601383 49.51484138 -21.87207521 44.07490712 -21.87725449 38.63487434 C-21.88094467 36.56129094 -21.88815065 34.48771066 -21.89896011 32.41415215 C-21.91351606 29.50576802 -21.91547621 26.59762379 -21.91455078 23.68920898 C-21.92174133 22.83540649 -21.92893188 21.981604 -21.93634033 21.10192871 C-21.91473315 14.81032191 -21.49950035 9.53062544 -17.4375 4.453125 C-12.03155696 0.15294304 -6.61840117 -0.03428958 0 0 Z M-4.6875 17.265625 C-4.69160889 20.26350098 -4.69571777 23.26137695 -4.69995117 26.35009766 C-4.71715115 36.25683561 -4.76165712 46.16331547 -4.81959057 56.06989479 C-4.85387624 62.07610693 -4.87897307 68.08206427 -4.88305664 74.08837891 C-4.88733609 79.88522433 -4.91577042 85.68149481 -4.96093178 91.47816086 C-4.97391793 93.68929063 -4.97821053 95.90048916 -4.97365379 98.11165237 C-4.96875598 101.20999424 -4.99480551 104.30665051 -5.02807617 107.40478516 C-5.01945053 108.31828735 -5.01082489 109.23178955 -5.00193787 110.17297363 C-5.07915439 114.4645946 -5.32653597 117.38533369 -8.04121399 120.81942749 C-11.23929517 123.77569835 -13.50292668 124.36117377 -17.69921875 124.58203125 C-18.45654297 124.62392578 -19.21386719 124.66582031 -19.99414062 124.70898438 C-20.77982422 124.74830078 -21.56550781 124.78761719 -22.375 124.828125 C-23.17228516 124.87130859 -23.96957031 124.91449219 -24.79101562 124.95898438 C-26.75631447 125.06489868 -28.72188496 125.16575051 -30.6875 125.265625 C-26.25333328 130.57631305 -21.57233314 135.51399117 -16.6640625 140.38671875 C-15.91788666 141.13147964 -15.17171082 141.87624054 -14.40292358 142.64356995 C-12.04180611 144.99913327 -9.67721838 147.35117716 -7.3125 149.703125 C-5.70159144 151.30901263 -4.09091204 152.91513016 -2.48046875 154.52148438 C1.44787513 158.43886013 5.37906674 162.35335987 9.3125 166.265625 C12.57729753 164.83432872 14.74369142 163.08272513 17.25488281 160.56616211 C18.01536926 159.80875229 18.77585571 159.05134247 19.55938721 158.27098083 C20.36994568 157.45323685 21.18050415 156.63549286 22.015625 155.79296875 C23.27230988 154.53559654 23.27230988 154.53559654 24.55438232 153.25282288 C26.32183044 151.48235586 28.08684965 149.70946122 29.84960938 147.93432617 C32.56065816 145.20497927 35.2796655 142.48376068 38 139.76367188 C39.7140153 138.04474298 41.427573 136.32535765 43.140625 134.60546875 C43.9592804 133.78570053 44.77793579 132.96593231 45.62139893 132.12132263 C46.36927673 131.36706497 47.11715454 130.61280731 47.88769531 129.83569336 C48.55069641 129.16888046 49.21369751 128.50206757 49.89678955 127.81504822 C51.42492238 126.49238389 51.42492238 126.49238389 51.3125 125.265625 C50.15492188 125.23984375 48.99734375 125.2140625 47.8046875 125.1875 C46.26558872 125.13119151 44.72652767 125.0738448 43.1875 125.015625 C42.04667969 124.99435547 42.04667969 124.99435547 40.8828125 124.97265625 C35.64818652 124.74702582 32.38024608 123.85117626 28.3125 120.265625 C25.72221046 115.62449612 26.00608036 110.87056667 25.99365234 105.7019043 C25.98360672 104.74532425 25.9735611 103.7887442 25.96321106 102.80317688 C25.93237816 99.64873848 25.91534347 96.49438497 25.8984375 93.33984375 C25.87972596 91.14979828 25.86015256 88.95976001 25.8397522 86.76972961 C25.78842365 81.01093801 25.74880167 75.25212303 25.71160889 69.4932251 C25.67157388 63.61456516 25.62047921 57.73600253 25.5703125 51.85742188 C25.47354453 40.32688447 25.3901647 28.79630692 25.3125 17.265625 C15.4125 17.265625 5.5125 17.265625 -4.6875 17.265625 Z " fill="#ca1f26" transform="translate(439.6875,161.734375)"/>
<path d="M0 0 C0.81977325 -0.00570007 1.63954651 -0.01140015 2.48416138 -0.01727295 C4.21387452 -0.02669245 5.94360537 -0.03324477 7.67333984 -0.03710938 C10.30468326 -0.04681734 12.93524575 -0.07786999 15.56640625 -0.109375 C17.25259956 -0.1159059 18.93879842 -0.12115603 20.625 -0.125 C21.79408401 -0.1435202 21.79408401 -0.1435202 22.98678589 -0.16241455 C29.16411048 -0.13750093 33.73609671 1.15290765 38.7578125 4.953125 C42.90857275 10.487472 42.728159 17.00155305 42.67236328 23.62670898 C42.67265533 24.5445668 42.67294739 25.46242462 42.67324829 26.40809631 C42.67186233 29.42190218 42.65633574 32.43545642 42.640625 35.44921875 C42.63689226 37.54671595 42.63404652 39.6442149 42.63204956 41.74171448 C42.62443365 47.24739442 42.60480271 52.75296791 42.5826416 58.25860596 C42.56213914 63.88267578 42.55303844 69.5067629 42.54296875 75.13085938 C42.52155489 86.15499454 42.48744363 97.1790509 42.4453125 108.203125 C43.59128906 108.17992187 44.73726563 108.15671875 45.91796875 108.1328125 C47.4479101 108.11404021 48.97785856 108.09584159 50.5078125 108.078125 C51.25998047 108.06136719 52.01214844 108.04460937 52.78710938 108.02734375 C58.15214343 107.98089324 63.86131091 108.071034 68.1875 111.640625 C70.95404005 115.45654231 72.60587936 117.75119408 72.7578125 122.453125 C72.79519531 123.20078125 72.83257812 123.9484375 72.87109375 124.71875 C71.90605287 130.34963071 67.37574779 134.5265839 63.48071289 138.44238281 C63.00048172 138.92772491 62.52025055 139.41306702 62.02546692 139.91311646 C60.45305414 141.49931241 58.87344287 143.07808909 57.29296875 144.65625 C56.18943262 145.76367761 55.08611892 146.87132691 53.98301697 147.97918701 C51.6773688 150.29227189 49.3679163 152.60147593 47.0559082 154.90820312 C44.09734705 157.86095538 41.1503423 160.82495217 38.20629215 163.79216385 C35.93382298 166.07937476 33.65445404 168.35961069 31.37304497 170.63790131 C30.28348033 171.72797835 29.19626861 172.8204126 28.11149788 173.91526031 C26.59451375 175.4446078 25.06825805 176.96407457 23.53930664 178.48144531 C22.67422989 179.34715149 21.80915314 180.21285767 20.91786194 181.10479736 C17.89109775 183.67345903 15.23560099 185.0488452 11.26953125 185.390625 C0.28368341 184.42660179 -6.69003849 175.36932846 -14.07421875 167.94921875 C-15.0642182 166.96056985 -16.05451409 165.97221772 -17.04508972 164.98414612 C-19.1064815 162.92568315 -21.1642626 160.86369693 -23.21948242 158.79907227 C-25.84643877 156.16067749 -28.48233551 153.53142607 -31.12097645 150.90472317 C-33.16211302 148.87082762 -35.19844521 146.83217554 -37.23337364 144.79207039 C-38.20349302 143.82062305 -39.17508311 142.85064199 -40.1482029 141.88220024 C-41.50705697 140.52845324 -42.85877998 139.16755979 -44.21020508 137.80639648 C-44.97883377 137.03617661 -45.74746246 136.26595673 -46.53938293 135.47239685 C-51.15042144 130.28027847 -52.05000827 126.59524019 -51.83984375 119.796875 C-51.47945562 116.51882404 -50.77699256 114.65532369 -48.5546875 112.203125 C-44.23004733 109.09825513 -40.4889973 108.06787993 -35.2265625 108.10546875 C-34.02773438 108.11030273 -34.02773438 108.11030273 -32.8046875 108.11523438 C-31.9796875 108.12361328 -31.1546875 108.13199219 -30.3046875 108.140625 C-29.46421875 108.14513672 -28.62375 108.14964844 -27.7578125 108.15429688 C-25.69007349 108.16604539 -23.62237126 108.18397978 -21.5546875 108.203125 C-21.56134933 107.00122528 -21.56801117 105.79932556 -21.57487488 104.56100464 C-21.63570317 93.23147063 -21.68066848 81.90196978 -21.71012402 70.57230949 C-21.7257765 64.74768134 -21.74700744 58.92318507 -21.78100586 53.09863281 C-21.81361376 47.47708973 -21.83154366 41.85567348 -21.83931923 36.23404312 C-21.84486013 34.08984506 -21.85568013 31.9456539 -21.87187767 29.80150986 C-21.89367065 26.79704566 -21.8966536 23.7931048 -21.89526367 20.78857422 C-21.9060495 19.90312424 -21.91683533 19.01767426 -21.927948 18.10539246 C-21.90264029 13.04616851 -21.35810542 9.58866257 -18.5546875 5.203125 C-13.0008387 -0.20456989 -7.42390695 0.04027212 0 0 Z M-4.5546875 17.203125 C-4.56927002 20.14041504 -4.58385254 23.07770508 -4.59887695 26.10400391 C-4.64922433 35.8111392 -4.71581981 45.5181141 -4.79040241 55.22509193 C-4.83512099 61.11017105 -4.87437404 66.99518069 -4.90112305 72.88037109 C-4.92714088 78.56039983 -4.96753302 84.24016145 -5.01787376 89.92002487 C-5.03455267 92.08649751 -5.04606056 94.25301637 -5.05230141 96.41954422 C-5.06193113 99.45527366 -5.08997774 102.49031814 -5.12231445 105.52587891 C-5.12087936 106.42067963 -5.11944427 107.31548035 -5.1179657 108.23739624 C-5.19416547 113.29889705 -5.74740234 116.81764351 -8.5546875 121.203125 C-12.7353165 124.78761312 -17.1031037 124.73618834 -22.3671875 124.890625 C-23.15544922 124.92478516 -23.94371094 124.95894531 -24.75585938 124.99414062 C-26.68831869 125.07612375 -28.62147785 125.14131345 -30.5546875 125.203125 C-26.12052078 130.51381305 -21.43952064 135.45149117 -16.53125 140.32421875 C-15.78507416 141.06897964 -15.03889832 141.81374054 -14.27011108 142.58106995 C-11.90899361 144.93663327 -9.54440588 147.28867716 -7.1796875 149.640625 C-5.56877894 151.24651263 -3.95809954 152.85263016 -2.34765625 154.45898438 C1.58068763 158.37636013 5.51187924 162.29085987 9.4453125 166.203125 C12.71011003 164.77182872 14.87650392 163.02022513 17.38769531 160.50366211 C18.14818176 159.74625229 18.90866821 158.98884247 19.69219971 158.20848083 C20.50275818 157.39073685 21.31331665 156.57299286 22.1484375 155.73046875 C23.40512238 154.47309654 23.40512238 154.47309654 24.68719482 153.19032288 C26.45464294 151.41985586 28.21966215 149.64696122 29.98242188 147.87182617 C32.69347066 145.14247927 35.412478 142.42126068 38.1328125 139.70117188 C39.8468278 137.98224298 41.5603855 136.26285765 43.2734375 134.54296875 C44.0920929 133.72320053 44.91074829 132.90343231 45.75421143 132.05882263 C46.50208923 131.30456497 47.24996704 130.55030731 48.02050781 129.77319336 C48.68350891 129.10638046 49.34651001 128.43956757 50.02960205 127.75254822 C51.55773488 126.42988389 51.55773488 126.42988389 51.4453125 125.203125 C50.27613281 125.16574219 49.10695313 125.12835938 47.90234375 125.08984375 C46.35413575 125.0241622 44.80596008 124.95771561 43.2578125 124.890625 C42.48888672 124.86806641 41.71996094 124.84550781 40.92773438 124.82226562 C35.38941237 124.56079978 31.98561133 123.58222578 27.83879089 119.69854736 C25.65976127 115.79637042 26.00608399 111.96751462 26.01293945 107.56933594 C25.99765198 106.10542419 25.99765198 106.10542419 25.98205566 104.61193848 C25.9518686 101.38706769 25.94265085 98.16249366 25.93359375 94.9375 C25.91675133 92.70118213 25.89860169 90.46487376 25.87919617 88.22857666 C25.83164278 82.34316982 25.80186782 76.45780146 25.77575684 70.57226562 C25.74597835 64.56632893 25.69943869 58.5605249 25.65429688 52.5546875 C25.56820282 40.77088736 25.50243354 28.98710124 25.4453125 17.203125 C15.5453125 17.203125 5.6453125 17.203125 -4.5546875 17.203125 Z " fill="#ca1f26" transform="translate(51.5546875,161.796875)"/>
<path d="M0 0 C2.09605408 1.38830566 2.09605408 1.38830566 4 4 C4.61707354 7.39712491 4.55638995 10.76803583 4.53344727 14.21289062 C4.54206284 15.25068161 4.55067841 16.2884726 4.55955505 17.35771179 C4.58227245 20.79081099 4.57546557 24.22309779 4.56640625 27.65625 C4.57163903 30.03991947 4.57791423 32.42358686 4.58518982 34.80725098 C4.59560457 39.80405417 4.59101653 44.80057276 4.57641602 49.79736328 C4.55922197 56.20708091 4.58272661 62.61590268 4.61790562 69.02552032 C4.6398436 73.94799767 4.63844686 78.87025945 4.6301403 83.79277039 C4.62931891 86.15631595 4.63621797 88.51987704 4.65091133 90.88337708 C4.66829105 94.18518505 4.65386818 97.48536746 4.63110352 100.78710938 C4.64279572 101.76697311 4.65448792 102.74683685 4.66653442 103.75639343 C4.5737709 110.35434193 4.5737709 110.35434193 1.68321228 113.60705566 C-1.84342616 115.43785044 -4.07917735 115.57030148 -8 115 C-10.36497439 113.13291495 -11.66030715 111.67938569 -13 109 C-13.09779636 107.63030811 -13.13500446 106.2560263 -13.14044189 104.88285828 C-13.14615204 104.02067688 -13.15186218 103.15849548 -13.15774536 102.27018738 C-13.15886322 101.32210709 -13.15998108 100.37402679 -13.16113281 99.3972168 C-13.16609772 98.40033844 -13.17106262 97.40346008 -13.17617798 96.37637329 C-13.19082356 93.06731484 -13.19760578 89.75830433 -13.203125 86.44921875 C-13.20887471 84.15476988 -13.21463246 81.86032103 -13.22039795 79.56587219 C-13.23091491 74.74972306 -13.23675295 69.93359065 -13.24023438 65.11743164 C-13.24571897 58.94340108 -13.26974351 52.76959107 -13.29820633 46.59562969 C-13.31682245 41.85416517 -13.32203778 37.11275386 -13.32357025 32.37125587 C-13.32659988 30.09505826 -13.3346388 27.81886165 -13.34775543 25.54269981 C-13.36479333 22.35861782 -13.36294095 19.17507577 -13.35644531 15.9909668 C-13.3656601 15.0489592 -13.37487488 14.1069516 -13.3843689 13.13639832 C-13.35337775 8.2914671 -13.22488305 4.89963508 -10 1 C-6.87057535 -0.56471233 -3.38917777 -0.69701958 0 0 Z " fill="#ca1f26" transform="translate(207,167)"/>
<path d="M0 0 C2.90000514 0.60739327 4.18543046 2.06343542 5.90234375 4.3984375 C7.04339816 6.68054632 7.03034442 7.94222543 7.03605652 10.47761536 C7.0403215 11.3313826 7.04458649 12.18514984 7.04898071 13.06478882 C7.04852753 14.00351837 7.04807434 14.94224792 7.04760742 15.90942383 C7.05096603 16.89654861 7.05432465 17.8836734 7.05778503 18.90071106 C7.06731557 22.17730962 7.06923931 25.45385718 7.0703125 28.73046875 C7.07352401 31.00249757 7.076888 33.27452618 7.08039856 35.54655457 C7.08639537 40.31562784 7.08823793 45.08468298 7.08764648 49.85375977 C7.08754492 55.96720754 7.10118879 62.08053902 7.11841869 68.19395924 C7.12953431 72.88909947 7.13156581 77.58421158 7.13103676 82.27936363 C7.13221786 84.53322436 7.13664688 86.7870858 7.14436913 89.04093361 C7.15415848 92.19379447 7.15129485 95.34640271 7.14526367 98.49926758 C7.15088318 99.43192444 7.15650269 100.3645813 7.16229248 101.32550049 C7.12204108 109.59965184 7.12204108 109.59965184 4.90234375 113.3984375 C1.16495815 115.8900279 -0.67097208 115.85637035 -5.09765625 115.3984375 C-7.78477478 114.01330566 -7.78477478 114.01330566 -10.09765625 111.3984375 C-10.85160374 108.00172323 -10.77013288 104.652817 -10.72875977 101.18554688 C-10.73591507 100.14775589 -10.74307037 99.1099649 -10.7504425 98.04072571 C-10.76736269 94.607433 -10.74790627 91.17543988 -10.7265625 87.7421875 C-10.72739088 85.35851941 -10.72984911 82.97485137 -10.73387146 80.59118652 C-10.73673176 75.59430762 -10.72200489 70.59787637 -10.69458008 65.60107422 C-10.66049761 59.19143441 -10.66651371 52.7825953 -10.68524265 46.37291718 C-10.69580402 41.45043244 -10.68688253 36.52813448 -10.67185783 31.60566711 C-10.66666926 29.24213719 -10.66716596 26.87858782 -10.67340279 24.51506042 C-10.67884433 21.21338869 -10.65851236 17.9128687 -10.63110352 14.61132812 C-10.63762939 13.63146439 -10.64415527 12.65160065 -10.65087891 11.64204407 C-10.55734222 5.02596132 -10.55734222 5.02596132 -8.1893158 1.79333496 C-5.27617591 -0.14939584 -3.4097713 -0.16509135 0 0 Z " fill="#ca1f26" transform="translate(311.09765625,166.6015625)"/>
<path d="M0 0 C0.66 -0.0103125 1.32 -0.020625 2 -0.03125 C5.1084518 0.79443251 6.08365882 1.88261522 8 4.5 C8.6130361 7.89759638 8.54604121 11.26837886 8.51757812 14.71289062 C8.5245874 15.75068161 8.53159668 16.7884726 8.53881836 17.85771179 C8.55643473 21.29082942 8.54476211 24.72312388 8.53125 28.15625 C8.53394385 30.5399186 8.53782538 32.92358614 8.54284668 35.30725098 C8.54874669 40.30406146 8.54016222 45.30058602 8.52148438 50.29736328 C8.49869499 56.70698047 8.51181531 63.11592773 8.53577423 69.52552032 C8.55021836 74.44798849 8.54563249 79.37029746 8.53526306 84.29277039 C8.53259196 86.65630675 8.53587893 89.01985751 8.54518127 91.38337708 C8.55532363 94.68501148 8.53987693 97.98555627 8.51757812 101.28710938 C8.52567505 102.26697311 8.53377197 103.24683685 8.54211426 104.25639343 C8.45919656 110.87281831 8.45919656 110.87281831 6.09265137 114.10510254 C3.83384732 115.6107523 2.69102469 116.04204726 0 116 C-0.66 116.0103125 -1.32 116.020625 -2 116.03125 C-5.1084518 115.20556749 -6.08365882 114.11738478 -8 111.5 C-8.6130361 108.10240362 -8.54604121 104.73162114 -8.51757812 101.28710938 C-8.5245874 100.24931839 -8.53159668 99.2115274 -8.53881836 98.14228821 C-8.55643473 94.70917058 -8.54476211 91.27687612 -8.53125 87.84375 C-8.53394385 85.4600814 -8.53782538 83.07641386 -8.54284668 80.69274902 C-8.54874669 75.69593854 -8.54016222 70.69941398 -8.52148438 65.70263672 C-8.49869499 59.29301953 -8.51181531 52.88407227 -8.53577423 46.47447968 C-8.55021836 41.55201151 -8.54563249 36.62970254 -8.53526306 31.70722961 C-8.53259196 29.34369325 -8.53587893 26.98014249 -8.54518127 24.61662292 C-8.55532363 21.31498852 -8.53987693 18.01444373 -8.51757812 14.71289062 C-8.52567505 13.73302689 -8.53377197 12.75316315 -8.54211426 11.74360657 C-8.45919656 5.12718169 -8.45919656 5.12718169 -6.09265137 1.89489746 C-3.83384732 0.3892477 -2.69102469 -0.04204726 0 0 Z " fill="#ca1f26" transform="translate(256,166.5)"/>
</svg>
